<svg xmlns="http://www.w3.org/2000/svg" id="Layer_2" data-name="Layer 2" viewBox="188.85 159.74 345.05 195.77"><defs><style>.cls-1,.cls-6,.cls-7{fill:#333;}.cls-1,.cls-10,.cls-2,.cls-4,.cls-8,.cls-9{stroke:#fff;}.cls-1,.cls-10,.cls-2,.cls-3,.cls-4,.cls-5,.cls-6,.cls-8,.cls-9{stroke-miterlimit:10;}.cls-2{fill:#6d6e71;}.cls-3,.cls-5{fill:none;}.cls-3{stroke:#231f20;}.cls-4{fill:#a1a3a6;}.cls-5,.cls-6{stroke:#333;}.cls-5{stroke-width:2px;}.cls-6{stroke-width:1.5px;}.cls-10,.cls-8,.cls-9{fill:#fff;}.cls-8{stroke-width:0.39px;}.cls-9{stroke-width:1.03px;}.cls-10{stroke-width:0.68px;}</style></defs><polygon class="cls-1" points="533.4 281.92 395.47 223.04 361.38 242.81 327.56 222.78 189.35 281.92 246.83 221.08 475.92 221.08 533.4 281.92"/><polygon class="cls-2" points="339.9 295.84 255.69 337.26 315.38 249.45 328.24 230.54 339.9 295.84"/><polygon class="cls-1" points="315.38 249.45 255.69 337.26 280.8 258.36 315.38 249.45"/><polygon class="cls-2" points="328.24 230.54 315.38 249.45 280.8 258.36 189.35 281.92 326.93 223.22 328.24 230.54"/><polygon class="cls-2" points="467.06 337.26 382.85 295.84 394.5 230.61 407.3 249.43 467.06 337.26"/><polygon class="cls-1" points="467.06 337.26 407.3 249.43 441.95 258.36 467.06 337.26"/><line class="cls-3" x1="407.3" y1="249.43" x2="407.12" y2="249.38"/><polygon class="cls-2" points="533.4 281.92 441.95 258.36 407.3 249.43 394.5 230.61 395.82 223.22 533.4 281.92"/><polygon class="cls-4" points="533.4 281.92 395.82 223.22 394.5 230.61 382.85 295.84 373.92 345.85 373.92 345.86 372.28 355.01 350.47 355.01 348.84 345.88 339.9 295.84 328.24 230.54 326.93 223.22 189.35 281.92 327.56 222.78 361.38 242.81 395.47 223.04 533.4 281.92"/><line class="cls-5" x1="246.83" y1="200.44" x2="475.92" y2="200.44"/><path class="cls-6" d="M435.18,198.93H395.83s11.09-20,17.11-24.44c9.52-7,45-14,45-14Z"/><path class="cls-6" d="M286.8,198.93h39.35s-11.09-20-17.11-24.44c-9.51-7-45-14-45-14Z"/><path class="cls-7" d="M276.08,204.43V220a1.33,1.33,0,0,0,.16.71,1.14,1.14,0,0,0,.58.39v.49h-4.89v-.49a1.11,1.11,0,0,0,.57-.39,1.24,1.24,0,0,0,.16-.71V204.43H267.8a.69.69,0,0,0-.53.2,1.79,1.79,0,0,0-.3.76h-.36v-4.83l.34,0c.09.37.21.15.33.29a.63.63,0,0,0,.52.21h13.14a.66.66,0,0,0,.53-.21c.13-.14.24-.07.31-.44h.36v5h-.37a1.57,1.57,0,0,0-.3-.76.69.69,0,0,0-.53-.2Z"/><path class="cls-7" d="M296.88,212.62h-9V220a1.27,1.27,0,0,0,.17.7,1,1,0,0,0,.57.38v.49H283.7v-.49a1.06,1.06,0,0,0,.57-.39,1.21,1.21,0,0,0,.17-.69V202.6a1.21,1.21,0,0,0-.17-.69,1.06,1.06,0,0,0-.57-.39V201h4.89v.48a1,1,0,0,0-.57.38,1.27,1.27,0,0,0-.17.7v6.63h9V202.6a1.27,1.27,0,0,0-.16-.7,1,1,0,0,0-.57-.38V201H301v.48a1.14,1.14,0,0,0-.58.39,1.3,1.3,0,0,0-.16.69V220a1.3,1.3,0,0,0,.16.69,1.14,1.14,0,0,0,.58.39v.49h-4.89v-.49a1,1,0,0,0,.57-.38,1.27,1.27,0,0,0,.16-.7Z"/><path class="cls-7" d="M308,212.57v5.64h10.08a.68.68,0,0,0,.53-.21,1.73,1.73,0,0,0,.29-.76h.37v4.36h-.37c-.07-.37-.3.21-.42.07s-.17-.07-.4-.07H303.86v-.49a1.06,1.06,0,0,0,.57-.39,1.24,1.24,0,0,0,.16-.71V202.62a1.27,1.27,0,0,0-.16-.71,1.06,1.06,0,0,0-.57-.39V201h13.95a.64.64,0,0,0,.53-.22c.12-.14.26.14.34-.22l.33,0v4.81h-.37a1.8,1.8,0,0,0-.3-.75.66.66,0,0,0-.53-.21H308v4.88h6.36a.66.66,0,0,0,.53-.21,1.92,1.92,0,0,0,.3-.76h.36v5.2h-.36a1.92,1.92,0,0,0-.3-.75.67.67,0,0,0-.53-.22Z"/><path class="cls-7" d="M339.46,207.11,335.88,219a5.34,5.34,0,0,0-.31,1.15c0,.46.29.78.85,1v.49h-5v-.49a1,1,0,0,0,.77-1,8.35,8.35,0,0,0-.32-1.34l-4.49-15.17a6.61,6.61,0,0,0-.61-1.53,1.33,1.33,0,0,0-.78-.53V201h5.44v.48a.87.87,0,0,0-.72.89,4,4,0,0,0,.18,1l3.1,10.88,3.35-10.94a3.92,3.92,0,0,0,.22-.93.87.87,0,0,0-.77-.89V201h5.69v.48a1,1,0,0,0-.78,1,4,4,0,0,0,.2.9l3.2,10.88,3.08-10.7a4.61,4.61,0,0,0,.24-1.19c0-.44-.27-.73-.82-.87V201h5.38v.48a1.58,1.58,0,0,0-.79.54,7.7,7.7,0,0,0-.57,1.52l-4.49,15.17a6.07,6.07,0,0,0-.32,1.45.88.88,0,0,0,.81.91v.49h-5.11v-.49a.92.92,0,0,0,.81-1,6,6,0,0,0-.36-1.36Z"/><path class="cls-7" d="M354.84,220V202.6a1.3,1.3,0,0,0-.16-.69,1.14,1.14,0,0,0-.58-.39V201H359v.48a1,1,0,0,0-.57.38,1.27,1.27,0,0,0-.16.7V220a1.3,1.3,0,0,0,.16.72,1,1,0,0,0,.57.38v.49H354.1v-.49a1.14,1.14,0,0,0,.58-.39A1.33,1.33,0,0,0,354.84,220Z"/><path class="cls-7" d="M370,204.43V220a1.24,1.24,0,0,0,.16.71,1.15,1.15,0,0,0,.57.39v.49h-4.88v-.49a1.15,1.15,0,0,0,.57-.39,1.24,1.24,0,0,0,.16-.71V204.43h-4.87a.67.67,0,0,0-.52.2,1.57,1.57,0,0,0-.3.76h-.37v-4.85l.36,0c.08.37.19.13.31.27a.64.64,0,0,0,.52.21h13.14a.67.67,0,0,0,.54-.21c.12-.14.26,0,.34-.38h.33v4.94h-.37a1.79,1.79,0,0,0-.3-.76.7.7,0,0,0-.54-.2Z"/><path class="cls-7" d="M392.71,214.53l2.18,4.29-.3.27c-.21-.26-.39-.39-.52-.39a3.63,3.63,0,0,0-1.16.72,15,15,0,0,1-3.32,2,9.43,9.43,0,0,1-3.17.16c-2.47,0-4.54-.41-6.12-1.95a9.34,9.34,0,0,1-2.21-3.33,13.07,13.07,0,0,1-.92-5,12.31,12.31,0,0,1,1.66-6.49,8.26,8.26,0,0,1,7.56-4.14,8.93,8.93,0,0,1,3.19.51,14.45,14.45,0,0,1,3.33,2,3.59,3.59,0,0,0,1.16.7c.13,0,.31-.13.52-.39l.3.27-2.18,4.3-.31-.27a3.18,3.18,0,0,0,0-.41,1.36,1.36,0,0,0-.28-.82,5.16,5.16,0,0,0-1-.92,7.14,7.14,0,0,0-4.31-1.5,5.48,5.48,0,0,0-4.27,1.76,8.62,8.62,0,0,0,0,10.77,5.44,5.44,0,0,0,4.27,1.76,7.14,7.14,0,0,0,4.31-1.5,4.86,4.86,0,0,0,1-.93,1.36,1.36,0,0,0,.28-.82,2.82,2.82,0,0,0,0-.39Z"/><path class="cls-7" d="M410.2,212.62h-9V220a1.19,1.19,0,0,0,.17.7,1,1,0,0,0,.56.38v.49H397v-.49a1.14,1.14,0,0,0,.58-.39,1.21,1.21,0,0,0,.16-.69V202.6a1.21,1.21,0,0,0-.16-.69,1.14,1.14,0,0,0-.58-.39V201h4.89v.48a1.08,1.08,0,0,0-.57.38,1.27,1.27,0,0,0-.16.7v6.63h9V202.6a1.37,1.37,0,0,0-.16-.7,1.07,1.07,0,0,0-.58-.38V201h4.89v.48a1.11,1.11,0,0,0-.57.39,1.21,1.21,0,0,0-.16.69V220a1.21,1.21,0,0,0,.16.69,1.11,1.11,0,0,0,.57.39v.49h-4.89v-.49a1,1,0,0,0,.57-.38,1.27,1.27,0,0,0,.17-.7Z"/><path class="cls-7" d="M421.33,212.57v5.64H431.4a.66.66,0,0,0,.53-.21,1.85,1.85,0,0,0,.3-.76h.36v4.36h-.46c-.08-.37.12.14,0,0s-.5,0-.73,0H417.17v-.49a1.14,1.14,0,0,0,.58-.39,1.33,1.33,0,0,0,.16-.71V202.62a1.36,1.36,0,0,0-.16-.71,1.14,1.14,0,0,0-.58-.39V201h14a.62.62,0,0,0,.52-.22c.13-.14.25,0,.32-.41l.35,0v5H432a1.56,1.56,0,0,0-.3-.75.64.64,0,0,0-.52-.21h-9.8v4.88h6.35a.66.66,0,0,0,.53-.21,1.92,1.92,0,0,0,.3-.76h.37v5.2h-.37a1.92,1.92,0,0,0-.3-.75.67.67,0,0,0-.53-.22Z"/><path class="cls-7" d="M439.18,213.21V220a1.27,1.27,0,0,0,.17.7,1,1,0,0,0,.56.38v.49H435v-.49a1.15,1.15,0,0,0,.57-.39,1.21,1.21,0,0,0,.16-.69V202.62a1.27,1.27,0,0,0-.16-.71,1.15,1.15,0,0,0-.57-.39V201h9.8a11.94,11.94,0,0,1,2.84.27,4.58,4.58,0,0,1,1.83.95,4.74,4.74,0,0,1,1.35,2.12,8.93,8.93,0,0,1,.42,2.77q0,5-4.25,5.89l3,5.68a12.66,12.66,0,0,0,1.17,1.92,1.32,1.32,0,0,0,.92.47v.49h-5.66v-.49c.39-.08.58-.26.58-.54a4.36,4.36,0,0,0-.54-1.31l-3.17-6Zm0-3.39h5.28a10.27,10.27,0,0,0,1.65-.09,2.17,2.17,0,0,0,.88-.38,3.27,3.27,0,0,0,0-4.46,2,2,0,0,0-.87-.38,10.59,10.59,0,0,0-1.66-.08h-5.28Z"/><polygon class="cls-8" points="361.24 237.36 361.24 237.36 353.24 230.02 369.51 230.02 361.24 237.36"/><polyline class="cls-9" points="374.41 346.08 365.25 330.64 371.7 354.46"/><polyline class="cls-10" points="362.99 355.01 362.94 343.61 367.56 355.01"/><polyline class="cls-10" points="358.58 355.01 358.63 343.61 354.01 355.01"/><polyline class="cls-9" points="348 346.08 357.15 330.64 350.7 354.46"/></svg>