<svg xmlns="http://www.w3.org/2000/svg" id="Layer_2" data-name="Layer 2" viewBox="188.03 98.99 345.05 195.78"><defs><style>.cls-1,.cls-7{fill:#333;}.cls-1,.cls-10,.cls-2,.cls-4,.cls-8,.cls-9{stroke:#fff;}.cls-1,.cls-10,.cls-2,.cls-3,.cls-4,.cls-5,.cls-6,.cls-8,.cls-9{stroke-miterlimit:10;}.cls-2{fill:#6d6e71;}.cls-3,.cls-5{fill:none;}.cls-3{stroke:#231f20;}.cls-4{fill:#a1a3a6;}.cls-5{stroke:#333;stroke-width:2px;}.cls-6{fill:#cb2026;stroke:#cc2127;stroke-width:1.5px;}.cls-10,.cls-8,.cls-9{fill:#fff;}.cls-8{stroke-width:0.39px;}.cls-9{stroke-width:1.03px;}.cls-10{stroke-width:0.68px;}</style></defs><polygon class="cls-1" points="532.58 221.18 394.65 162.3 360.56 182.07 326.74 162.04 188.53 221.18 246.01 160.34 475.1 160.34 532.58 221.18"/><polygon class="cls-2" points="339.07 235.1 254.87 276.52 314.56 188.71 327.42 169.8 339.07 235.1"/><polygon class="cls-1" points="314.56 188.71 254.87 276.52 279.98 197.62 314.56 188.71"/><polygon class="cls-2" points="327.42 169.8 314.56 188.71 279.98 197.62 188.53 221.18 326.11 162.48 327.42 169.8"/><polygon class="cls-2" points="466.24 276.52 382.02 235.1 393.68 169.87 406.48 188.69 466.24 276.52"/><polygon class="cls-1" points="466.24 276.52 406.48 188.69 441.13 197.62 466.24 276.52"/><line class="cls-3" x1="406.47" y1="188.69" x2="406.29" y2="188.64"/><polygon class="cls-2" points="532.58 221.18 441.13 197.62 406.48 188.69 393.68 169.87 395 162.48 532.58 221.18"/><polygon class="cls-4" points="532.58 221.18 395 162.48 393.68 169.87 382.02 235.1 373.1 285.11 373.1 285.12 371.45 294.27 349.64 294.27 348.01 285.14 339.07 235.1 327.42 169.8 326.11 162.48 188.53 221.18 326.74 162.04 360.56 182.07 394.64 162.3 532.58 221.18"/><line class="cls-5" x1="246" y1="139.69" x2="475.1" y2="139.69"/><path class="cls-6" d="M434.35,138.19H395s11.09-20,17.11-24.45c9.51-6.95,45-14,45-14Z"/><path class="cls-6" d="M286,138.19h39.34s-11.09-20-17.11-24.45c-9.51-6.95-45-14-45-14Z"/><path class="cls-7" d="M275.26,143.68v15.59a1.27,1.27,0,0,0,.16.71,1.11,1.11,0,0,0,.57.39v.48H271.1v-.48a1.14,1.14,0,0,0,.58-.39,1.36,1.36,0,0,0,.16-.71V143.68H267a.64.64,0,0,0-.52.21,1.57,1.57,0,0,0-.3.76h-.37v-4.83l.35,0c.08.36.2.15.32.29a.67.67,0,0,0,.52.2h13.14a.7.7,0,0,0,.54-.2c.12-.14.23-.08.31-.44h.35v5H281a1.79,1.79,0,0,0-.3-.76.67.67,0,0,0-.54-.21Z"/><path class="cls-7" d="M296.06,151.88h-9v7.41a1.19,1.19,0,0,0,.17.7,1.09,1.09,0,0,0,.56.38v.48h-4.88v-.48a1.15,1.15,0,0,0,.57-.39,1.21,1.21,0,0,0,.16-.69V141.86a1.21,1.21,0,0,0-.16-.69,1.23,1.23,0,0,0-.57-.4v-.48h4.88v.48a1,1,0,0,0-.57.39,1.25,1.25,0,0,0-.16.7v6.63h9v-6.63a1.25,1.25,0,0,0-.16-.7,1,1,0,0,0-.58-.39v-.48h4.89v.48a1.23,1.23,0,0,0-.57.4,1.21,1.21,0,0,0-.16.69v17.43a1.21,1.21,0,0,0,.16.69,1.15,1.15,0,0,0,.57.39v.48h-4.89v-.48a1.08,1.08,0,0,0,.57-.38,1.27,1.27,0,0,0,.17-.7Z"/><path class="cls-7" d="M307.19,151.83v5.63h10.07a.66.66,0,0,0,.53-.21,1.8,1.8,0,0,0,.3-.75h.37v4.35h-.37c-.08-.36-.3.21-.42.07s-.18-.07-.41-.07H303v-.48a1.14,1.14,0,0,0,.58-.39,1.27,1.27,0,0,0,.16-.71v-17.4a1.23,1.23,0,0,0-.16-.7,1.21,1.21,0,0,0-.58-.4v-.48h14a.64.64,0,0,0,.52-.21c.13-.15.27.13.34-.23h.33v4.81h-.37a1.56,1.56,0,0,0-.3-.75.62.62,0,0,0-.52-.22h-9.8v4.88h6.35a.66.66,0,0,0,.53-.21,1.8,1.8,0,0,0,.3-.75h.37v5.19h-.37a1.8,1.8,0,0,0-.3-.74.64.64,0,0,0-.53-.22Z"/><path class="cls-7" d="M338.64,146.36l-3.58,11.89a4.86,4.86,0,0,0-.31,1.14c0,.46.28.79.85,1v.48h-5.05v-.48a.94.94,0,0,0,.77-1A8.35,8.35,0,0,0,331,158l-4.49-15.17a6.09,6.09,0,0,0-.6-1.53,1.29,1.29,0,0,0-.79-.54v-.48h5.45v.48a.88.88,0,0,0-.73.89,3.74,3.74,0,0,0,.19,1l3.09,10.88,3.36-10.94a4.57,4.57,0,0,0,.22-.94.89.89,0,0,0-.77-.89v-.48h5.69v.48a1,1,0,0,0-.78,1,3.89,3.89,0,0,0,.19.91l3.2,10.88,3.09-10.7a4.61,4.61,0,0,0,.24-1.19c0-.44-.28-.73-.83-.88v-.48h5.39v.48a1.6,1.6,0,0,0-.79.55,6.93,6.93,0,0,0-.58,1.52L346.26,158a6.72,6.72,0,0,0-.32,1.44.89.89,0,0,0,.82.92v.48h-5.11v-.48a.93.93,0,0,0,.8-1,6.06,6.06,0,0,0-.36-1.35Z"/><path class="cls-7" d="M354,159.27V141.86a1.21,1.21,0,0,0-.16-.69,1.23,1.23,0,0,0-.57-.4v-.48h4.88v.48a1,1,0,0,0-.57.39,1.25,1.25,0,0,0-.16.7v17.41a1.32,1.32,0,0,0,.17.72,1.09,1.09,0,0,0,.56.38v.48h-4.88v-.48a1.15,1.15,0,0,0,.57-.39A1.27,1.27,0,0,0,354,159.27Z"/><path class="cls-7" d="M369.2,143.68v15.59a1.36,1.36,0,0,0,.16.71,1.14,1.14,0,0,0,.58.39v.48h-4.89v-.48a1.06,1.06,0,0,0,.57-.39,1.27,1.27,0,0,0,.16-.71V143.68h-4.86a.66.66,0,0,0-.53.21,1.79,1.79,0,0,0-.3.76h-.37V139.8l.36,0c.09.36.2.13.32.27a.67.67,0,0,0,.52.2h13.14a.73.73,0,0,0,.54-.2c.12-.14.25,0,.33-.39h.33v5h-.37a1.68,1.68,0,0,0-.29-.76.7.7,0,0,0-.54-.21Z"/><path class="cls-7" d="M391.89,153.79l2.18,4.28-.3.27c-.22-.26-.39-.39-.53-.39a3.66,3.66,0,0,0-1.16.73,14.42,14.42,0,0,1-3.32,2,9.17,9.17,0,0,1-3.17.16c-2.47,0-4.53-.41-6.12-1.94a9.31,9.31,0,0,1-2.2-3.33,13.16,13.16,0,0,1-.93-5,12.31,12.31,0,0,1,1.66-6.49,8.26,8.26,0,0,1,7.56-4.14,8.89,8.89,0,0,1,3.19.51,14.82,14.82,0,0,1,3.33,2,3.84,3.84,0,0,0,1.16.71c.14,0,.31-.13.53-.39l.3.27-2.18,4.29-.31-.27c0-.16,0-.29,0-.4a1.35,1.35,0,0,0-.29-.82,4.87,4.87,0,0,0-1-.92,7.12,7.12,0,0,0-4.3-1.5,5.46,5.46,0,0,0-4.28,1.76,8.65,8.65,0,0,0,0,10.77,5.5,5.5,0,0,0,4.28,1.76,7.06,7.06,0,0,0,4.3-1.51,5.16,5.16,0,0,0,1-.92,1.37,1.37,0,0,0,.29-.82c0-.11,0-.25,0-.4Z"/><path class="cls-7" d="M409.37,151.88h-9v7.41a1.27,1.27,0,0,0,.17.7,1.08,1.08,0,0,0,.57.38v.48h-4.89v-.48a1.11,1.11,0,0,0,.57-.39,1.21,1.21,0,0,0,.16-.69V141.86a1.21,1.21,0,0,0-.16-.69,1.18,1.18,0,0,0-.57-.4v-.48h4.89v.48a1,1,0,0,0-.58.39,1.34,1.34,0,0,0-.16.7v6.63h9v-6.63a1.25,1.25,0,0,0-.16-.7,1,1,0,0,0-.57-.39v-.48h4.89v.48a1.21,1.21,0,0,0-.58.4,1.3,1.3,0,0,0-.16.69v17.43a1.3,1.3,0,0,0,.16.69,1.14,1.14,0,0,0,.58.39v.48h-4.89v-.48a1.08,1.08,0,0,0,.57-.38,1.27,1.27,0,0,0,.16-.7Z"/><path class="cls-7" d="M420.5,151.83v5.63h10.08a.64.64,0,0,0,.52-.21,1.56,1.56,0,0,0,.3-.75h.37v4.35h-.47c-.07-.36.13.14,0,0s-.49,0-.72,0H416.35v-.48a1.11,1.11,0,0,0,.57-.39,1.27,1.27,0,0,0,.16-.71v-17.4a1.23,1.23,0,0,0-.16-.7,1.18,1.18,0,0,0-.57-.4v-.48H430.3a.66.66,0,0,0,.53-.21c.12-.15.24-.06.32-.41h.34v5h-.36a1.8,1.8,0,0,0-.3-.75.64.64,0,0,0-.53-.22h-9.8v4.88h6.36a.68.68,0,0,0,.53-.21,1.68,1.68,0,0,0,.29-.75h.37v5.19h-.37a1.69,1.69,0,0,0-.29-.74.65.65,0,0,0-.53-.22Z"/><path class="cls-7" d="M438.35,152.46v6.83a1.27,1.27,0,0,0,.17.7,1.08,1.08,0,0,0,.57.38v.48H434.2v-.48a1.14,1.14,0,0,0,.58-.39,1.3,1.3,0,0,0,.16-.69V141.87a1.32,1.32,0,0,0-.16-.7,1.21,1.21,0,0,0-.58-.4v-.48H444a11.89,11.89,0,0,1,2.84.27,4.45,4.45,0,0,1,1.83.95,4.69,4.69,0,0,1,1.35,2.13,8.6,8.6,0,0,1,.43,2.77q0,5-4.26,5.89l3,5.68a13.32,13.32,0,0,0,1.18,1.92,1.33,1.33,0,0,0,.91.47v.48h-5.66v-.48c.39-.08.59-.26.59-.54a4.36,4.36,0,0,0-.54-1.31l-3.17-6.06Zm0-3.39h5.28a10.51,10.51,0,0,0,1.66-.09,2.21,2.21,0,0,0,.88-.37,3.29,3.29,0,0,0,0-4.46,2.23,2.23,0,0,0-.88-.39,11.93,11.93,0,0,0-1.66-.08h-5.28Z"/><polygon class="cls-8" points="360.41 176.61 360.41 176.61 352.42 169.27 368.69 169.27 360.41 176.61"/><polyline class="cls-9" points="373.58 285.33 364.43 269.9 370.88 293.72"/><polyline class="cls-10" points="362.17 294.26 362.12 282.87 366.74 294.27"/><polyline class="cls-10" points="357.75 294.26 357.8 282.87 353.18 294.27"/><polyline class="cls-9" points="347.17 285.33 356.33 269.9 349.88 293.72"/></svg>